<svg width="84" height="100" viewBox="0 0 84 100" fill="none" xmlns="http://www.w3.org/2000/svg">
<path d="M66.0911 72.0252L66.144 71.9886L66.0911 72.0252Z" fill="url(#paint0_linear)"/>
<path d="M19.5031 90.3438V78.1422L19.3121 78.2598L19.3325 99.1704L24.5861 98.3592L27.4425 96.5541C27.4425 96.5541 19.5031 98.5417 19.5031 90.3438Z" fill="url(#paint1_linear)"/>
<path d="M54.9134 55.6577L50.5983 58.4039L54.9134 55.6577L57.7413 53.8527L54.9134 55.6577Z" fill="url(#paint2_linear)"/>
<path d="M57.6317 53.8323L80.3121 39.4606C78.9323 37.5581 77.205 35.9328 75.221 34.6701L67.241 29.5834L23.424 1.63497C21.8183 0.610221 19.9615 0.0455639 18.0562 0.0026434C16.151 -0.0402771 14.2705 0.440189 12.6201 1.39159L4.5426 6.06047C3.16201 6.8567 2.0155 8.00148 1.21817 9.37989C0.420833 10.7583 0.000720011 12.3219 0 13.9136L0 85.1962C2.95308e-05 86.5554 0.360107 87.8904 1.04371 89.0659C1.72732 90.2413 2.71014 91.2153 3.89249 91.8892L16.537 99.0852C17.6387 99.7125 18.8907 100.028 20.1586 99.998C21.4265 99.968 22.6622 99.5935 23.7328 98.9149L62.3327 74.4225L42.1592 63.7705L19.5031 78.1422V61.3529C19.5035 60.9847 19.5962 60.6225 19.773 60.2994C19.9497 59.9762 20.2048 59.7025 20.5148 59.5032L32.3426 51.9624C32.5994 51.7989 32.8107 51.5734 32.957 51.3068C33.1034 51.0403 33.1802 50.7412 33.1802 50.4372C33.1802 50.1332 33.1034 49.8341 32.957 49.5675C32.8107 49.3009 32.5994 49.0755 32.3426 48.912L20.5067 41.3874C20.1958 41.1856 19.9409 40.9089 19.7655 40.5828C19.5901 40.2566 19.4998 39.8916 19.5031 39.5215V28.6585C19.5025 28.1012 19.6494 27.5537 19.9288 27.0713C20.2082 26.5889 20.6103 26.1887 21.0944 25.9112C21.5785 25.6338 22.1274 25.4889 22.6856 25.4912C23.2438 25.4936 23.7915 25.643 24.2732 25.9245L28.7671 28.549L57.7414 47.0217C58.4003 47.4426 58.9217 48.0465 59.2415 48.7592C59.5612 49.4719 59.6655 50.2624 59.5413 51.0335C59.4438 51.6098 59.2227 52.1583 58.8931 52.6414C58.5635 53.1245 58.1332 53.5307 57.6317 53.8323Z" fill="url(#paint3_linear)"/>
<path d="M80.3121 39.4607L57.7414 53.8527L54.8972 55.6537L66.083 72.0171L66.1358 71.9806L75.2129 66.1962C84.68 60.1725 86.3703 47.7844 80.3121 39.4607Z" fill="url(#paint4_linear)"/>
<path d="M80.3122 39.4606C78.9323 37.5581 77.205 35.9328 75.221 34.6701L67.241 29.5834C67.241 29.5834 78.5284 38.3857 65.8677 47.8857C62.093 50.644 58.5093 53.2482 58.103 53.5565L50.6146 58.4242L19.5031 78.1422C19.5031 100.002 28.3161 95.9902 28.3161 95.9902L66.1033 72.0049L66.1562 71.9684L75.2332 66.184C84.68 60.1725 86.3703 47.7843 80.3122 39.4606Z" fill="url(#paint5_linear)"/>
<path d="M54.9135 55.6577L57.7414 53.8527L54.9135 55.6577Z" fill="url(#paint6_linear)"/>
<path d="M54.9135 55.6577L57.7414 53.8527L54.9135 55.6577Z" fill="url(#paint7_linear)"/>
<defs>
<linearGradient id="paint0_linear" x1="57.4188" y1="55.0326" x2="34.9026" y2="11.0755" gradientUnits="userSpaceOnUse">
<stop stop-color="#FFC224"/>
<stop offset="1" stop-color="#FD9119"/>
</linearGradient>
<linearGradient id="paint1_linear" x1="86.0778" y1="49.6584" x2="25.3352" y2="86.3934" gradientUnits="userSpaceOnUse">
<stop stop-color="#FDCB26"/>
<stop offset="1" stop-color="#FD9219"/>
</linearGradient>
<linearGradient id="paint2_linear" x1="1525.06" y1="448.492" x2="762.757" y2="1293.49" gradientUnits="userSpaceOnUse">
<stop stop-color="#FFC224"/>
<stop offset="1" stop-color="#FD9119"/>
</linearGradient>
<linearGradient id="paint3_linear" x1="3.31959" y1="56.7002" x2="61.5413" y2="31.0207" gradientUnits="userSpaceOnUse">
<stop stop-color="#FFC224"/>
<stop offset="1" stop-color="#FF7814"/>
</linearGradient>
<linearGradient id="paint4_linear" x1="6138.28" y1="3925.4" x2="1548.6" y2="6390.82" gradientUnits="userSpaceOnUse">
<stop stop-color="#FDCB26"/>
<stop offset="1" stop-color="#FD9219"/>
</linearGradient>
<linearGradient id="paint5_linear" x1="12468.9" y1="6971.31" x2="3574.58" y2="13647.1" gradientUnits="userSpaceOnUse">
<stop stop-color="#FFC224"/>
<stop offset="1" stop-color="#FF7814"/>
</linearGradient>
<linearGradient id="paint6_linear" x1="614.422" y1="232.917" x2="309.679" y2="521.166" gradientUnits="userSpaceOnUse">
<stop stop-color="#FDCB26"/>
<stop offset="1" stop-color="#FD9219"/>
</linearGradient>
<linearGradient id="paint7_linear" x1="639.138" y1="210.805" x2="336.745" y2="545.403" gradientUnits="userSpaceOnUse">
<stop stop-color="#FFC224"/>
<stop offset="1" stop-color="#FD9119"/>
</linearGradient>
</defs>
</svg>
